<svg id="svg" version="1.1" xmlns="http://www.w3.org/2000/svg" xmlns:xlink="http://www.w3.org/1999/xlink" width="400" height="400" viewBox="0, 0, 400,400"><g id="svgg"><path id="path0" d="M217.417 127.168 C 216.867 127.235,215.179 127.415,213.667 127.566 C 212.154 127.718,210.673 127.881,210.375 127.928 L 209.833 128.015 209.833 151.174 L 209.833 174.333 214.750 174.333 L 219.667 174.333 219.667 150.667 L 219.667 127.000 219.042 127.023 C 218.698 127.035,217.967 127.101,217.417 127.168 M323.333 135.000 C 323.333 139.400,323.276 143.000,323.205 143.000 C 323.135 143.000,322.705 142.693,322.250 142.317 C 320.340 140.738,318.785 140.250,315.667 140.250 C 309.307 140.250,305.067 144.228,303.152 151.993 C 302.937 152.864,302.828 152.742,302.436 151.200 C 300.243 142.563,291.245 137.995,282.228 140.940 C 268.632 145.380,267.627 168.380,280.787 173.895 C 287.380 176.658,296.518 175.390,301.721 170.991 C 301.797 170.926,301.014 169.721,299.981 168.312 C 298.949 166.903,298.092 165.731,298.078 165.707 C 298.064 165.683,297.347 166.034,296.485 166.486 C 289.063 170.375,281.538 167.599,281.502 160.958 L 281.500 160.500 292.076 160.500 L 302.652 160.500 302.731 161.042 C 303.404 165.653,303.835 167.232,305.057 169.581 C 308.447 176.095,317.287 177.377,322.547 172.119 C 324.048 170.619,324.083 170.619,324.231 172.120 C 324.292 172.742,324.386 173.494,324.440 173.792 L 324.537 174.333 328.852 174.333 L 333.167 174.333 333.167 151.178 C 333.167 129.267,333.151 128.018,332.875 127.941 C 332.715 127.896,331.983 127.811,331.250 127.752 C 330.517 127.693,328.589 127.500,326.966 127.322 C 325.343 127.145,323.862 127.000,323.674 127.000 C 323.335 127.000,323.333 127.050,323.333 135.000 M83.333 152.667 L 83.333 174.333 88.417 174.333 L 93.500 174.333 93.500 152.667 L 93.500 131.000 88.417 131.000 L 83.333 131.000 83.333 152.667 M104.575 133.208 C 103.861 134.423,102.440 136.842,101.416 138.583 C 99.319 142.150,97.857 144.647,97.073 146.000 C 96.781 146.504,95.971 147.885,95.274 149.069 L 94.006 151.220 96.443 155.985 C 97.784 158.606,98.934 160.825,98.999 160.917 C 99.064 161.008,100.153 163.108,101.419 165.583 C 102.685 168.058,104.215 171.039,104.819 172.208 L 105.917 174.333 111.708 174.333 C 114.894 174.333,117.500 174.302,117.500 174.265 C 117.500 174.227,117.212 173.683,116.860 173.056 C 114.365 168.611,113.678 167.390,112.046 164.500 C 103.381 149.156,104.111 150.529,104.391 150.093 C 104.512 149.904,105.198 148.813,105.916 147.667 C 108.064 144.234,111.661 138.513,112.622 137.000 C 115.754 132.067,116.292 131.181,116.206 131.095 C 116.154 131.043,113.808 131.000,110.992 131.000 L 105.873 131.000 104.575 133.208 M255.083 133.087 C 254.167 133.204,252.404 133.419,251.167 133.566 C 249.929 133.712,248.635 133.877,248.292 133.931 L 247.667 134.029 247.667 137.598 L 247.667 141.167 239.375 141.176 L 231.083 141.185 229.882 142.884 C 229.221 143.819,228.209 145.229,227.632 146.019 C 227.055 146.808,225.916 148.383,225.100 149.519 C 223.580 151.635,222.323 153.350,221.053 155.042 C 220.657 155.569,220.333 156.066,220.333 156.146 C 220.333 156.303,230.898 173.964,231.131 174.198 C 231.208 174.275,233.713 174.318,236.697 174.294 L 242.124 174.250 236.739 165.833 C 231.071 156.973,230.500 156.055,230.500 155.799 C 230.500 155.711,230.938 155.064,231.474 154.361 C 232.010 153.658,233.307 151.921,234.358 150.500 C 239.365 143.727,240.554 142.180,240.688 142.263 C 240.768 142.313,240.833 143.586,240.833 145.093 L 240.833 147.833 244.235 147.833 L 247.637 147.833 247.710 156.625 C 247.802 167.614,248.124 169.196,250.836 171.976 C 254.713 175.951,263.320 176.530,269.825 173.254 C 271.200 172.562,271.320 172.375,270.869 171.629 C 270.687 171.329,269.995 170.015,269.331 168.708 C 268.667 167.402,268.092 166.333,268.055 166.333 C 268.017 166.333,267.708 166.473,267.368 166.643 C 265.223 167.717,261.066 167.991,259.417 167.167 C 257.557 166.236,257.500 165.903,257.500 155.911 L 257.500 147.838 262.375 147.794 L 267.250 147.750 267.700 144.667 C 267.947 142.971,268.153 141.490,268.158 141.375 C 268.165 141.212,266.994 141.167,262.833 141.167 L 257.500 141.167 257.500 137.000 L 257.500 132.833 257.125 132.854 C 256.919 132.866,256.000 132.970,255.083 133.087 M126.417 140.401 C 118.426 141.952,113.839 148.315,113.834 157.855 C 113.829 168.878,119.753 175.336,129.865 175.333 C 139.257 175.330,144.971 169.799,145.844 159.867 C 146.700 150.133,142.385 142.774,134.583 140.664 C 132.867 140.199,128.225 140.050,126.417 140.401 M164.000 140.330 C 161.736 140.766,159.514 141.978,157.626 143.806 C 156.915 144.494,156.303 145.025,156.265 144.987 C 156.200 144.920,155.825 143.138,155.593 141.792 L 155.485 141.167 151.242 141.167 L 147.000 141.167 147.000 157.750 L 147.000 174.333 151.917 174.333 L 156.833 174.333 156.833 162.655 L 156.833 150.976 157.516 150.167 C 160.258 146.915,164.066 146.226,165.333 148.753 L 165.750 149.583 165.797 161.958 L 165.844 174.333 170.755 174.333 L 175.667 174.333 175.667 161.410 C 175.667 145.919,175.621 145.534,173.496 142.995 C 171.609 140.741,167.643 139.628,164.000 140.330 M189.750 140.402 C 179.099 142.463,173.702 155.488,178.833 166.750 C 183.100 176.115,197.731 178.372,207.049 171.102 C 207.342 170.874,206.380 169.399,203.781 166.092 L 203.394 165.600 202.871 165.973 C 198.484 169.097,191.974 169.070,189.024 165.915 C 187.865 164.677,186.475 161.081,186.965 160.590 C 187.015 160.541,191.874 160.500,197.762 160.500 L 208.469 160.500 208.594 158.875 C 209.215 150.818,205.768 143.912,199.894 141.442 C 197.134 140.281,192.716 139.828,189.750 140.402 M194.145 146.675 C 197.222 147.174,198.737 149.251,199.093 153.458 L 199.210 154.833 193.022 154.833 L 186.833 154.833 186.833 154.265 C 186.833 150.507,188.911 147.376,191.833 146.730 C 193.008 146.471,192.904 146.473,194.145 146.675 M289.754 146.924 C 291.921 147.520,293.369 149.937,293.612 153.360 L 293.717 154.833 287.506 154.833 L 281.295 154.833 281.413 153.723 C 282.007 148.181,285.116 145.646,289.754 146.924 M131.704 147.506 C 134.704 148.348,135.965 151.816,135.789 158.743 C 135.614 165.593,133.951 168.244,129.833 168.232 C 125.805 168.221,124.116 165.504,123.885 158.667 C 123.593 150.021,126.398 146.017,131.704 147.506 M319.758 147.395 C 320.915 147.703,321.270 147.917,322.375 148.970 L 323.333 149.884 323.333 157.174 L 323.333 164.463 322.613 165.442 C 319.836 169.213,315.563 169.202,313.816 165.418 C 312.514 162.599,312.286 155.216,313.389 151.651 C 314.454 148.213,316.841 146.618,319.758 147.395 " stroke="none" fill="#fbfbfb" fill-rule="evenodd"></path><path id="path1" d="M161.966 61.445 C 160.335 61.500,160.030 61.551,160.108 61.755 C 160.187 61.959,159.960 62.000,158.758 62.000 C 157.838 62.000,157.351 62.060,157.417 62.167 C 157.481 62.271,157.145 62.333,156.522 62.333 C 155.857 62.333,155.440 62.417,155.274 62.583 C 155.126 62.731,154.719 62.833,154.280 62.833 C 153.772 62.833,153.505 62.913,153.440 63.083 C 153.377 63.247,153.118 63.333,152.691 63.333 C 152.332 63.333,151.823 63.445,151.561 63.582 C 151.298 63.719,150.835 63.832,150.532 63.832 C 150.207 63.833,150.023 63.902,150.083 64.000 C 150.144 64.099,149.953 64.167,149.614 64.167 C 149.299 64.167,148.947 64.279,148.833 64.417 C 148.719 64.554,148.422 64.667,148.172 64.667 C 147.923 64.667,147.583 64.817,147.417 65.000 C 147.250 65.185,146.903 65.333,146.641 65.333 C 146.380 65.333,146.167 65.408,146.167 65.500 C 146.167 65.592,145.862 65.667,145.490 65.667 C 145.106 65.667,144.856 65.735,144.911 65.825 C 144.965 65.912,144.747 66.032,144.427 66.092 C 144.107 66.152,143.861 66.286,143.881 66.388 C 143.901 66.491,143.736 66.603,143.515 66.636 C 143.294 66.670,143.007 66.803,142.878 66.932 C 142.749 67.061,142.498 67.167,142.321 67.167 C 142.145 67.167,142.000 67.242,142.000 67.333 C 142.000 67.425,141.810 67.500,141.578 67.500 C 141.346 67.500,141.113 67.612,141.060 67.750 C 141.008 67.887,140.793 68.000,140.583 68.000 C 140.374 68.000,140.159 68.112,140.106 68.250 C 140.054 68.387,139.858 68.500,139.672 68.500 C 139.486 68.500,139.333 68.567,139.333 68.649 C 139.333 68.730,139.143 68.845,138.910 68.903 C 138.677 68.962,138.531 69.083,138.586 69.172 C 138.641 69.261,138.537 69.333,138.355 69.333 C 138.173 69.333,137.911 69.446,137.774 69.583 C 137.636 69.721,137.438 69.833,137.333 69.833 C 137.229 69.833,137.038 69.927,136.911 70.042 C 136.386 70.512,136.207 70.631,135.862 70.741 C 135.663 70.804,135.500 70.963,135.500 71.095 C 135.500 71.226,135.382 71.333,135.239 71.333 C 135.095 71.333,134.732 71.521,134.431 71.750 C 134.131 71.979,133.815 72.167,133.730 72.167 C 133.644 72.167,133.457 72.298,133.314 72.458 C 132.884 72.941,132.175 73.500,131.994 73.500 C 131.900 73.500,131.780 73.612,131.727 73.750 C 131.674 73.887,131.527 74.000,131.399 74.000 C 131.271 74.000,131.167 74.112,131.167 74.250 C 131.167 74.387,131.057 74.500,130.923 74.500 C 130.790 74.500,130.452 74.706,130.172 74.958 C 129.893 75.210,129.437 75.623,129.160 75.875 C 128.882 76.127,128.623 76.333,128.585 76.333 C 128.447 76.333,126.500 78.375,126.500 78.520 C 126.500 78.601,126.388 78.667,126.250 78.667 C 126.112 78.667,126.000 78.736,126.000 78.821 C 126.000 79.017,125.022 80.000,124.826 80.000 C 124.745 80.000,124.591 80.169,124.485 80.375 C 124.379 80.581,124.076 80.952,123.812 81.199 C 123.549 81.446,123.333 81.690,123.333 81.741 C 123.333 81.792,123.033 82.133,122.667 82.500 C 122.300 82.867,122.000 83.245,122.000 83.341 C 122.000 83.437,121.813 83.690,121.583 83.902 C 121.354 84.114,121.167 84.373,121.167 84.477 C 121.167 84.582,121.099 84.667,121.016 84.667 C 120.933 84.667,120.674 84.993,120.440 85.392 C 120.206 85.791,119.825 86.297,119.594 86.517 C 119.362 86.737,119.171 87.014,119.170 87.132 C 119.168 87.251,118.979 87.550,118.750 87.797 C 118.521 88.044,118.333 88.332,118.333 88.436 C 118.333 88.541,118.221 88.719,118.083 88.833 C 117.946 88.947,117.833 89.174,117.833 89.336 C 117.833 89.498,117.721 89.674,117.583 89.727 C 117.446 89.780,117.333 89.930,117.333 90.060 C 117.333 90.191,117.221 90.341,117.083 90.394 C 116.946 90.446,116.833 90.642,116.833 90.828 C 116.833 91.014,116.758 91.167,116.667 91.167 C 116.575 91.167,116.500 91.247,116.500 91.345 C 116.500 91.443,116.388 91.636,116.250 91.774 C 116.112 91.911,116.000 92.160,116.000 92.327 C 116.000 92.494,115.898 92.670,115.774 92.718 C 115.649 92.766,115.504 93.024,115.450 93.292 C 115.396 93.561,115.164 93.961,114.934 94.182 C 114.640 94.464,114.543 94.695,114.609 94.957 C 114.670 95.201,114.615 95.364,114.451 95.427 C 114.313 95.480,114.151 95.780,114.092 96.095 C 114.033 96.409,113.913 96.667,113.826 96.667 C 113.738 96.667,113.667 96.884,113.667 97.149 C 113.667 97.424,113.559 97.672,113.417 97.727 C 113.273 97.782,113.167 98.031,113.167 98.310 C 113.167 98.590,113.060 98.839,112.917 98.894 C 112.752 98.957,112.667 99.218,112.667 99.661 C 112.667 100.090,112.596 100.318,112.470 100.292 C 112.356 100.267,112.250 100.495,112.219 100.833 C 112.189 101.154,112.090 101.442,111.999 101.472 C 111.908 101.503,111.833 101.814,111.833 102.163 C 111.833 102.573,111.745 102.832,111.583 102.894 C 111.412 102.959,111.333 103.228,111.333 103.750 C 111.333 104.272,111.255 104.541,111.083 104.606 C 110.922 104.668,110.833 104.926,110.833 105.331 C 110.833 105.706,110.725 106.049,110.564 106.182 C 110.358 106.353,110.317 106.589,110.388 107.190 C 110.456 107.760,110.416 108.029,110.241 108.174 C 110.091 108.299,110.000 108.683,110.000 109.192 C 110.000 110.072,109.611 110.491,109.304 109.942 C 109.181 109.722,108.884 109.667,107.815 109.667 C 107.081 109.667,106.521 109.600,106.572 109.519 C 106.753 109.225,105.827 109.171,100.583 109.171 C 95.340 109.171,94.413 109.225,94.595 109.519 C 94.645 109.600,94.080 109.667,93.338 109.667 C 92.293 109.667,91.968 109.723,91.894 109.917 C 91.825 110.095,91.546 110.167,90.919 110.167 C 90.342 110.167,89.970 110.252,89.833 110.417 C 89.715 110.559,89.352 110.667,88.989 110.667 C 88.639 110.667,88.307 110.742,88.250 110.833 C 88.193 110.925,87.849 111.000,87.485 111.000 C 87.050 111.000,86.790 111.086,86.727 111.250 C 86.668 111.405,86.414 111.500,86.060 111.500 C 85.707 111.500,85.453 111.595,85.394 111.750 C 85.339 111.893,85.090 112.000,84.810 112.000 C 84.531 112.000,84.282 112.107,84.227 112.250 C 84.172 112.393,83.924 112.500,83.649 112.500 C 83.384 112.500,83.167 112.569,83.167 112.653 C 83.167 112.738,82.942 112.856,82.667 112.917 C 82.392 112.977,82.167 113.096,82.167 113.180 C 82.167 113.264,81.977 113.333,81.745 113.333 C 81.513 113.333,81.280 113.446,81.227 113.583 C 81.174 113.721,80.994 113.833,80.827 113.833 C 80.660 113.833,80.411 113.946,80.274 114.083 C 80.136 114.221,79.878 114.333,79.699 114.333 C 79.520 114.333,79.281 114.446,79.167 114.583 C 79.053 114.721,78.864 114.833,78.747 114.833 C 78.631 114.833,78.492 114.946,78.440 115.083 C 78.387 115.221,78.229 115.333,78.089 115.333 C 77.948 115.333,77.833 115.408,77.833 115.500 C 77.833 115.592,77.681 115.667,77.495 115.667 C 77.309 115.667,77.113 115.779,77.060 115.917 C 77.008 116.054,76.822 116.167,76.649 116.167 C 76.475 116.167,76.333 116.244,76.333 116.339 C 76.333 116.433,76.202 116.560,76.042 116.621 C 75.881 116.682,75.659 116.811,75.547 116.907 C 74.990 117.392,74.836 117.500,74.703 117.500 C 74.623 117.500,74.339 117.763,74.072 118.083 C 73.804 118.404,73.494 118.667,73.383 118.667 C 73.272 118.667,72.865 118.967,72.480 119.333 C 72.094 119.700,71.760 120.000,71.736 120.000 C 71.712 120.000,71.406 120.282,71.055 120.626 C 70.704 120.971,70.200 121.421,69.936 121.626 C 69.671 121.832,69.498 122.000,69.551 122.000 C 69.603 122.000,69.126 122.519,68.490 123.154 C 67.854 123.789,67.333 124.348,67.333 124.396 C 67.333 124.445,67.165 124.666,66.958 124.888 C 66.402 125.486,65.833 126.184,65.833 126.271 C 65.833 126.313,65.646 126.550,65.417 126.797 C 65.188 127.044,65.000 127.379,65.000 127.540 C 65.000 127.701,64.887 127.833,64.750 127.833 C 64.612 127.833,64.500 127.946,64.500 128.083 C 64.500 128.221,64.426 128.333,64.337 128.333 C 64.247 128.333,64.126 128.521,64.068 128.750 C 64.011 128.979,63.862 129.167,63.737 129.167 C 63.612 129.167,63.550 129.269,63.598 129.395 C 63.646 129.521,63.569 129.668,63.426 129.723 C 63.283 129.778,63.167 129.978,63.167 130.167 C 63.167 130.356,63.054 130.554,62.917 130.606 C 62.779 130.659,62.667 130.844,62.667 131.018 C 62.667 131.191,62.590 131.333,62.496 131.333 C 62.402 131.333,62.252 131.525,62.163 131.760 C 62.065 132.017,61.925 132.140,61.809 132.069 C 61.677 131.987,61.645 132.089,61.705 132.405 C 61.762 132.702,61.713 132.890,61.563 132.948 C 61.437 132.996,61.333 133.217,61.333 133.440 C 61.333 133.662,61.221 133.887,61.083 133.940 C 60.946 133.992,60.833 134.207,60.833 134.417 C 60.833 134.626,60.721 134.841,60.583 134.894 C 60.428 134.953,60.333 135.207,60.333 135.560 C 60.333 135.914,60.238 136.168,60.083 136.227 C 59.940 136.282,59.833 136.531,59.833 136.810 C 59.833 137.090,59.727 137.339,59.583 137.394 C 59.437 137.450,59.333 137.699,59.333 137.995 C 59.333 138.273,59.258 138.500,59.167 138.500 C 59.075 138.500,59.000 138.828,59.000 139.230 C 59.000 139.675,58.903 140.040,58.750 140.167 C 58.599 140.292,58.500 140.657,58.500 141.086 C 58.500 141.565,58.418 141.829,58.250 141.894 C 58.075 141.961,58.000 142.234,58.000 142.810 C 58.000 143.386,57.925 143.660,57.750 143.727 C 57.562 143.799,57.499 144.104,57.497 144.953 C 57.496 145.744,57.446 146.008,57.333 145.833 C 57.139 145.533,57.139 145.536,57.166 147.375 C 57.179 148.305,57.123 148.833,57.010 148.833 C 56.891 148.833,56.833 150.102,56.833 152.750 C 56.833 155.418,56.890 156.667,57.011 156.667 C 57.129 156.667,57.171 157.201,57.136 158.237 C 57.103 159.220,57.146 159.796,57.250 159.778 C 57.344 159.762,57.438 160.247,57.466 160.883 C 57.501 161.686,57.586 162.044,57.758 162.109 C 57.924 162.173,58.000 162.459,58.000 163.023 C 58.000 163.599,58.075 163.872,58.250 163.940 C 58.429 164.009,58.500 164.289,58.500 164.934 C 58.500 165.429,58.574 165.833,58.665 165.833 C 58.755 165.833,58.877 166.133,58.936 166.500 C 58.995 166.867,59.108 167.167,59.188 167.167 C 59.268 167.167,59.333 167.424,59.333 167.738 C 59.333 168.052,59.446 168.422,59.583 168.560 C 59.721 168.697,59.833 168.956,59.833 169.134 C 59.833 169.313,59.946 169.553,60.083 169.667 C 60.221 169.781,60.333 170.092,60.333 170.359 C 60.333 170.636,60.440 170.885,60.583 170.940 C 60.721 170.992,60.833 171.131,60.833 171.247 C 60.833 171.364,60.946 171.553,61.083 171.667 C 61.221 171.781,61.332 171.996,61.331 172.145 C 61.327 172.500,62.190 174.211,62.458 174.383 C 62.573 174.457,62.667 174.654,62.667 174.821 C 62.667 174.989,62.779 175.219,62.917 175.333 C 63.054 175.447,63.167 175.613,63.167 175.701 C 63.167 175.889,64.191 177.390,64.375 177.472 C 64.444 177.503,64.500 177.636,64.500 177.769 C 64.500 177.902,64.612 178.054,64.750 178.106 C 64.887 178.159,65.000 178.289,65.000 178.395 C 65.000 178.500,65.206 178.809,65.458 179.081 C 65.710 179.353,65.917 179.620,65.917 179.675 C 65.917 179.729,66.048 179.905,66.208 180.065 C 66.369 180.226,66.501 180.408,66.503 180.470 C 66.508 180.661,67.980 182.167,68.162 182.167 C 68.256 182.167,68.333 182.243,68.333 182.336 C 68.333 182.428,68.708 182.877,69.167 183.333 C 69.625 183.789,70.000 184.238,70.000 184.331 C 70.000 184.424,70.071 184.500,70.157 184.500 C 70.243 184.500,70.646 184.819,71.052 185.208 C 72.365 186.468,72.800 186.833,72.985 186.833 C 73.085 186.833,73.167 186.946,73.167 187.083 C 73.167 187.222,73.315 187.333,73.500 187.333 C 73.683 187.333,73.833 187.433,73.833 187.555 C 73.833 187.677,74.040 187.883,74.292 188.013 C 74.544 188.143,74.810 188.343,74.883 188.458 C 74.957 188.573,75.125 188.667,75.258 188.667 C 75.391 188.667,75.500 188.744,75.500 188.837 C 75.500 188.931,75.688 189.080,75.917 189.167 C 76.146 189.254,76.333 189.402,76.333 189.496 C 76.333 189.590,76.483 189.667,76.667 189.667 C 76.850 189.667,77.000 189.734,77.000 189.815 C 77.000 189.897,77.188 190.011,77.417 190.068 C 77.646 190.126,77.833 190.247,77.833 190.337 C 77.833 190.426,77.948 190.500,78.089 190.500 C 78.229 190.500,78.387 190.612,78.440 190.750 C 78.492 190.887,78.678 191.000,78.851 191.000 C 79.025 191.000,79.167 191.112,79.167 191.250 C 79.167 191.415,79.331 191.500,79.649 191.500 C 79.924 191.500,80.172 191.607,80.227 191.750 C 80.280 191.887,80.513 192.000,80.745 192.000 C 80.977 192.000,81.167 192.061,81.167 192.135 C 81.167 192.303,82.348 192.833,82.723 192.833 C 82.875 192.833,83.000 192.946,83.000 193.083 C 83.000 193.258,83.176 193.333,83.583 193.333 C 83.991 193.333,84.167 193.409,84.167 193.583 C 84.167 193.749,84.332 193.833,84.657 193.833 C 84.926 193.833,85.193 193.908,85.250 194.000 C 85.307 194.092,85.522 194.167,85.728 194.167 C 85.934 194.167,86.249 194.277,86.426 194.411 C 86.604 194.546,87.028 194.658,87.367 194.661 C 87.706 194.664,88.043 194.769,88.117 194.893 C 88.190 195.018,88.623 195.160,89.078 195.210 C 89.533 195.260,89.933 195.383,89.967 195.484 C 90.002 195.589,90.444 195.667,91.009 195.667 C 91.725 195.667,91.968 195.723,91.910 195.875 C 91.849 196.032,92.183 196.083,93.254 196.083 C 94.341 196.083,94.715 196.143,94.833 196.333 C 94.970 196.554,99.085 196.589,129.945 196.629 C 155.141 196.662,164.933 196.725,165.015 196.858 C 165.164 197.099,165.019 200.623,164.837 201.192 C 164.622 201.862,164.619 209.992,164.833 210.250 C 165.012 210.465,164.989 214.021,164.747 224.065 C 164.674 227.081,164.695 228.581,164.811 228.653 C 164.969 228.750,165.083 237.050,164.942 238.167 L 164.889 238.583 128.395 238.625 L 91.900 238.667 91.603 237.375 C 91.440 236.665,91.162 235.707,90.986 235.247 C 90.810 234.787,90.666 234.337,90.666 234.247 C 90.665 234.072,89.824 231.957,89.518 231.359 C 88.694 229.753,87.782 228.088,87.679 228.000 C 87.624 227.954,87.363 227.579,87.097 227.167 C 85.198 224.222,80.470 219.606,78.333 218.611 C 78.196 218.547,77.746 218.277,77.333 218.011 C 76.488 217.466,73.571 216.000,73.332 216.000 C 73.246 216.000,72.855 215.859,72.463 215.687 C 66.847 213.219,56.486 213.219,50.871 215.687 C 50.479 215.859,50.088 216.000,50.002 216.000 C 49.763 216.000,46.845 217.466,46.000 218.011 C 45.587 218.277,45.137 218.547,45.000 218.611 C 42.864 219.606,38.136 224.222,36.237 227.167 C 35.971 227.579,35.709 227.954,35.655 228.000 C 35.557 228.083,34.311 230.354,33.790 231.401 C 33.486 232.011,32.668 234.085,32.667 234.247 C 32.667 234.337,32.524 234.787,32.349 235.247 C 31.376 237.808,31.250 238.880,31.250 244.583 C 31.250 250.410,31.167 249.721,32.359 253.750 C 33.051 256.088,34.567 259.307,35.922 261.317 C 36.194 261.720,36.492 262.170,36.583 262.317 C 36.675 262.463,36.788 262.621,36.834 262.667 C 36.880 262.712,37.245 263.181,37.646 263.708 C 38.046 264.235,38.440 264.667,38.520 264.667 C 38.601 264.667,38.667 264.747,38.667 264.844 C 38.667 265.115,40.742 267.114,42.332 268.374 C 43.112 268.992,43.830 269.564,43.928 269.644 C 45.221 270.704,49.299 272.758,51.693 273.553 C 60.475 276.472,69.708 275.483,77.572 270.780 C 78.482 270.236,79.307 269.724,79.405 269.644 C 79.503 269.564,80.222 268.992,81.002 268.374 C 82.591 267.114,84.667 265.115,84.667 264.844 C 84.667 264.747,84.733 264.667,84.813 264.667 C 84.894 264.667,85.287 264.235,85.688 263.708 C 86.088 263.181,86.454 262.712,86.500 262.667 C 86.546 262.621,86.658 262.463,86.750 262.317 C 86.842 262.170,87.139 261.720,87.411 261.317 C 88.465 259.754,90.667 255.331,90.667 254.777 C 90.667 254.677,90.789 254.273,90.939 253.881 L 91.212 253.167 135.002 253.167 C 175.289 253.167,178.811 253.145,179.018 252.895 C 179.206 252.669,179.243 247.930,179.240 224.645 L 179.237 196.667 184.619 196.667 L 190.001 196.667 189.984 236.208 C 189.975 257.956,189.908 276.347,189.835 277.076 C 189.762 277.805,189.766 278.855,189.845 279.409 C 189.934 280.040,189.928 280.437,189.827 280.472 C 189.507 280.583,189.666 281.160,190.042 281.251 C 190.248 281.302,193.567 281.322,197.417 281.296 L 204.417 281.250 204.470 280.875 C 204.499 280.669,204.443 280.500,204.346 280.500 C 204.221 280.500,204.178 268.095,204.200 238.583 L 204.231 196.667 209.907 196.667 L 215.583 196.667 215.541 251.000 L 215.499 305.333 209.499 305.333 L 203.500 305.333 203.500 322.083 L 203.500 338.833 222.333 338.833 L 241.167 338.833 241.167 322.083 L 241.167 305.333 235.667 305.333 L 230.167 305.333 230.167 251.000 L 230.167 196.667 235.072 196.667 C 239.610 196.667,239.982 196.688,240.036 196.958 C 240.069 197.119,240.090 198.000,240.083 198.917 C 240.077 199.833,240.045 205.046,240.014 210.500 C 239.982 215.954,239.901 220.154,239.833 219.833 C 239.766 219.512,239.717 221.387,239.726 224.000 L 239.741 228.750 239.829 224.750 L 239.917 220.750 240.016 227.167 C 240.198 238.822,240.056 275.459,239.833 274.583 C 239.763 274.308,239.697 276.015,239.686 278.375 C 239.669 282.126,239.699 282.667,239.922 282.667 C 240.062 282.667,240.216 282.769,240.264 282.894 C 240.337 283.084,245.825 283.118,274.498 283.102 C 308.515 283.083,308.644 283.085,308.719 283.417 C 309.049 284.886,310.824 288.969,311.879 290.688 C 312.083 291.021,312.433 291.602,312.656 291.980 C 312.879 292.358,313.123 292.667,313.197 292.667 C 313.272 292.667,313.333 292.748,313.333 292.846 C 313.333 293.652,319.681 300.000,320.487 300.000 C 320.586 300.000,320.667 300.061,320.667 300.136 C 320.667 300.211,320.976 300.455,321.354 300.678 C 321.731 300.901,322.313 301.250,322.645 301.455 C 323.873 302.208,327.689 304.000,328.066 304.000 C 328.188 304.000,328.655 304.140,329.103 304.312 C 333.783 306.105,342.884 306.105,347.564 304.312 C 348.012 304.140,348.478 304.000,348.601 304.000 C 348.978 304.000,352.794 302.208,354.021 301.455 C 354.354 301.250,354.935 300.901,355.313 300.678 C 355.691 300.455,356.000 300.211,356.000 300.136 C 356.000 300.061,356.081 300.000,356.180 300.000 C 356.986 300.000,363.333 293.652,363.333 292.846 C 363.333 292.748,363.395 292.667,363.469 292.667 C 363.544 292.667,363.788 292.358,364.011 291.980 C 364.234 291.602,364.584 291.021,364.788 290.688 C 365.541 289.460,367.333 285.644,367.333 285.268 C 367.333 285.145,367.474 284.678,367.645 284.231 C 369.439 279.551,369.439 270.449,367.645 265.769 C 367.474 265.322,367.333 264.855,367.333 264.732 C 367.333 264.356,365.541 260.540,364.788 259.312 C 364.584 258.979,364.234 258.398,364.011 258.020 C 363.788 257.642,363.544 257.333,363.469 257.333 C 363.395 257.333,363.333 257.252,363.333 257.154 C 363.333 256.348,356.986 250.000,356.180 250.000 C 356.081 250.000,356.000 249.939,356.000 249.864 C 356.000 249.789,355.691 249.545,355.313 249.322 C 354.935 249.099,354.354 248.750,354.021 248.545 C 352.794 247.792,348.978 246.000,348.601 246.000 C 348.478 246.000,348.012 245.860,347.564 245.688 C 342.884 243.895,333.783 243.895,329.103 245.688 C 328.655 245.860,328.188 246.000,328.066 246.000 C 327.689 246.000,323.873 247.792,322.645 248.545 C 322.313 248.750,321.731 249.099,321.354 249.322 C 320.976 249.545,320.667 249.789,320.667 249.864 C 320.667 249.939,320.586 250.000,320.487 250.000 C 319.681 250.000,313.333 256.348,313.333 257.154 C 313.333 257.252,313.272 257.333,313.197 257.333 C 313.123 257.333,312.879 257.642,312.656 258.020 C 312.433 258.398,312.083 258.979,311.879 259.312 C 310.569 261.446,309.044 265.131,308.576 267.294 C 308.451 267.869,308.304 268.413,308.248 268.503 C 308.183 268.609,298.695 268.667,281.240 268.667 L 254.333 268.667 254.333 232.667 L 254.333 196.667 259.626 196.667 L 264.919 196.667 264.899 222.513 L 264.878 248.359 265.272 248.509 C 265.489 248.591,265.667 248.735,265.667 248.829 C 265.667 248.943,267.843 249.000,272.177 249.000 C 276.482 249.000,278.651 248.943,278.583 248.833 C 278.526 248.741,278.672 248.593,278.907 248.504 L 279.333 248.342 279.333 222.512 L 279.333 196.682 299.923 196.633 C 318.009 196.589,320.531 196.553,320.667 196.333 C 320.783 196.145,321.149 196.083,322.160 196.083 C 323.120 196.083,323.499 196.024,323.500 195.875 C 323.500 195.730,323.830 195.667,324.593 195.667 C 325.194 195.667,325.645 195.600,325.595 195.519 C 325.485 195.341,326.054 195.172,326.774 195.169 C 327.084 195.168,327.337 195.065,327.394 194.917 C 327.450 194.769,327.701 194.667,328.007 194.667 C 328.291 194.667,328.636 194.554,328.774 194.417 C 328.911 194.279,329.239 194.167,329.502 194.167 C 329.765 194.167,330.027 194.092,330.083 194.000 C 330.140 193.908,330.361 193.833,330.575 193.833 C 330.789 193.833,331.008 193.721,331.060 193.583 C 331.116 193.437,331.366 193.333,331.661 193.333 C 331.999 193.333,332.167 193.251,332.167 193.083 C 332.167 192.919,332.331 192.833,332.649 192.833 C 332.924 192.833,333.172 192.726,333.227 192.583 C 333.280 192.446,333.475 192.333,333.661 192.333 C 333.848 192.333,334.000 192.268,334.000 192.188 C 334.000 192.108,334.300 191.995,334.667 191.936 C 335.033 191.877,335.333 191.755,335.333 191.665 C 335.333 191.574,335.480 191.500,335.658 191.500 C 335.837 191.500,336.043 191.406,336.117 191.292 C 336.252 191.080,336.715 190.755,337.167 190.553 C 337.304 190.492,337.477 190.342,337.550 190.221 C 337.623 190.099,337.830 190.000,338.008 190.000 C 338.187 190.000,338.333 189.925,338.333 189.833 C 338.333 189.742,338.485 189.667,338.671 189.667 C 338.857 189.667,339.346 189.329,339.759 188.917 C 340.171 188.504,340.571 188.167,340.647 188.167 C 340.723 188.167,340.975 187.990,341.207 187.775 C 341.440 187.559,341.751 187.337,341.898 187.280 C 342.046 187.223,342.167 187.100,342.167 187.005 C 342.167 186.911,342.279 186.833,342.417 186.833 C 342.554 186.833,342.667 186.721,342.667 186.583 C 342.667 186.446,342.752 186.333,342.856 186.333 C 342.960 186.333,343.219 186.146,343.431 185.917 C 343.644 185.688,343.865 185.500,343.924 185.500 C 343.982 185.500,344.253 185.294,344.526 185.042 C 345.645 184.009,346.667 183.006,346.667 182.942 C 346.667 182.904,346.948 182.577,347.292 182.216 C 348.078 181.388,348.667 180.689,348.667 180.582 C 348.667 180.427,349.417 179.750,349.542 179.792 C 349.610 179.815,349.667 179.654,349.667 179.434 C 349.667 179.215,349.784 178.991,349.927 178.936 C 350.071 178.881,350.141 178.760,350.084 178.668 C 350.027 178.576,350.096 178.500,350.237 178.500 C 350.378 178.500,350.539 178.318,350.595 178.095 C 350.651 177.873,350.807 177.648,350.942 177.597 C 351.077 177.545,351.146 177.435,351.095 177.352 C 351.044 177.269,351.114 177.159,351.251 177.106 C 351.388 177.053,351.500 176.871,351.500 176.700 C 351.500 176.529,351.723 176.170,351.995 175.903 C 352.268 175.635,352.493 175.285,352.495 175.125 C 352.498 174.965,352.569 174.833,352.653 174.833 C 352.738 174.833,352.856 174.608,352.917 174.333 C 352.977 174.058,353.131 173.833,353.258 173.833 C 353.395 173.833,353.451 173.732,353.394 173.583 C 353.341 173.446,353.385 173.333,353.491 173.333 C 353.597 173.333,353.762 173.108,353.858 172.833 C 353.954 172.558,354.100 172.333,354.183 172.333 C 354.266 172.333,354.333 172.150,354.333 171.925 C 354.333 171.700,354.457 171.447,354.609 171.362 C 354.772 171.271,354.843 171.100,354.783 170.942 C 354.726 170.795,354.807 170.550,354.965 170.392 C 355.270 170.087,355.281 170.057,355.313 169.407 C 355.324 169.169,355.407 169.026,355.500 169.083 C 355.593 169.141,355.667 169.015,355.668 168.802 C 355.668 168.590,355.781 168.202,355.918 167.939 C 356.055 167.677,356.167 167.281,356.167 167.059 C 356.167 166.837,356.279 166.613,356.417 166.560 C 356.586 166.495,356.667 166.229,356.667 165.732 C 356.667 165.192,356.732 165.000,356.917 165.000 C 357.105 165.000,357.167 164.797,357.167 164.177 C 357.167 163.724,357.242 163.307,357.333 163.250 C 357.425 163.193,357.500 162.753,357.500 162.272 C 357.500 161.761,357.602 161.263,357.745 161.074 C 357.898 160.871,357.991 160.358,357.995 159.698 C 357.998 159.041,358.062 158.686,358.167 158.750 C 358.258 158.807,358.333 158.705,358.333 158.524 C 358.333 158.343,358.240 158.151,358.125 158.097 C 357.958 158.019,357.958 157.981,358.125 157.903 C 358.286 157.828,358.333 156.510,358.333 152.143 C 358.333 148.410,358.277 146.515,358.167 146.583 C 358.064 146.647,358.000 146.367,358.000 145.857 C 358.000 145.356,357.920 145.001,357.798 144.960 C 357.687 144.923,357.539 144.411,357.469 143.822 C 357.186 141.442,357.077 140.917,356.872 140.958 C 356.733 140.986,356.667 140.755,356.667 140.245 C 356.667 139.727,356.588 139.459,356.417 139.394 C 356.262 139.334,356.167 139.081,356.167 138.727 C 356.167 138.413,356.070 138.119,355.953 138.074 C 355.835 138.029,355.722 137.788,355.701 137.538 C 355.681 137.288,355.589 137.058,355.499 137.028 C 355.408 136.997,355.333 136.678,355.333 136.319 C 355.333 135.850,355.263 135.667,355.083 135.667 C 354.926 135.667,354.833 135.508,354.833 135.238 C 354.833 135.002,354.721 134.697,354.583 134.560 C 354.446 134.422,354.333 134.085,354.333 133.812 C 354.333 133.521,354.264 133.357,354.166 133.417 C 354.075 133.474,353.926 133.328,353.837 133.093 C 353.748 132.859,353.598 132.667,353.504 132.667 C 353.410 132.667,353.333 132.517,353.333 132.333 C 353.333 132.150,353.258 132.000,353.167 132.000 C 353.075 132.000,353.000 131.810,353.000 131.578 C 353.000 131.346,352.887 131.113,352.750 131.060 C 352.613 131.008,352.500 130.785,352.500 130.566 C 352.500 130.322,352.403 130.167,352.250 130.167 C 352.113 130.167,352.000 130.025,352.000 129.851 C 352.000 129.678,351.887 129.492,351.750 129.440 C 351.613 129.387,351.500 129.229,351.500 129.089 C 351.500 128.948,351.425 128.833,351.333 128.833 C 351.242 128.833,351.167 128.718,351.167 128.578 C 351.167 128.438,351.061 128.282,350.932 128.233 C 350.802 128.183,350.651 127.960,350.595 127.738 C 350.539 127.515,350.420 127.333,350.330 127.333 C 350.240 127.333,350.167 127.259,350.167 127.169 C 350.167 127.014,349.850 126.577,349.375 126.077 C 349.260 125.956,349.167 125.777,349.167 125.679 C 349.167 125.580,349.054 125.500,348.917 125.500 C 348.779 125.500,348.667 125.388,348.667 125.250 C 348.667 125.112,348.592 125.000,348.500 125.000 C 348.408 125.000,348.333 124.932,348.333 124.849 C 348.333 124.688,347.824 124.097,346.311 122.506 C 345.794 121.963,345.413 121.476,345.463 121.426 C 345.514 121.375,345.385 121.333,345.177 121.333 C 344.903 121.333,344.825 121.262,344.897 121.075 C 344.952 120.932,344.929 120.858,344.847 120.908 C 344.764 120.959,344.508 120.776,344.276 120.500 C 344.044 120.225,343.779 120.000,343.686 120.000 C 343.593 120.000,343.457 119.899,343.383 119.776 C 343.310 119.653,342.912 119.310,342.500 119.014 C 342.087 118.718,341.690 118.369,341.617 118.238 C 341.543 118.107,341.383 118.000,341.260 118.000 C 341.136 118.000,340.992 117.888,340.940 117.750 C 340.887 117.612,340.725 117.500,340.579 117.500 C 340.433 117.500,340.359 117.427,340.414 117.338 C 340.469 117.249,340.337 117.132,340.122 117.078 C 339.907 117.024,339.593 116.797,339.425 116.573 C 339.257 116.350,338.951 116.167,338.744 116.167 C 338.538 116.167,338.326 116.054,338.273 115.917 C 338.220 115.779,338.025 115.667,337.839 115.667 C 337.652 115.667,337.500 115.592,337.500 115.500 C 337.500 115.408,337.385 115.333,337.245 115.333 C 337.104 115.333,336.946 115.221,336.894 115.083 C 336.841 114.946,336.660 114.833,336.492 114.833 C 336.324 114.833,336.143 114.763,336.089 114.676 C 336.036 114.590,335.638 114.346,335.205 114.135 C 334.771 113.923,334.318 113.656,334.196 113.542 C 334.075 113.427,333.832 113.333,333.655 113.333 C 333.478 113.333,333.333 113.258,333.333 113.167 C 333.333 113.075,333.151 113.000,332.929 113.000 C 332.706 113.000,332.411 112.888,332.274 112.750 C 332.136 112.612,331.839 112.500,331.613 112.500 C 331.387 112.500,331.159 112.388,331.106 112.250 C 331.051 112.107,330.803 112.000,330.523 112.000 C 330.244 112.000,329.995 111.893,329.940 111.750 C 329.880 111.595,329.627 111.500,329.273 111.500 C 328.919 111.500,328.666 111.405,328.606 111.250 C 328.543 111.085,328.282 111.000,327.839 111.000 C 327.469 111.000,327.167 110.925,327.167 110.833 C 327.167 110.742,326.844 110.667,326.449 110.667 C 326.054 110.667,325.585 110.557,325.407 110.422 C 325.229 110.287,324.725 110.175,324.286 110.172 C 323.735 110.168,323.460 110.090,323.394 109.917 C 323.321 109.728,323.018 109.667,322.163 109.667 C 321.403 109.667,321.005 109.598,320.959 109.458 C 320.908 109.307,320.196 109.235,318.359 109.196 C 316.860 109.164,315.867 109.080,315.924 108.988 C 315.980 108.897,315.483 108.845,314.718 108.862 L 313.417 108.891 314.500 109.000 C 315.222 109.073,314.490 109.119,312.304 109.138 C 309.638 109.161,308.977 109.213,308.774 109.417 C 308.599 109.591,308.173 109.667,307.363 109.667 C 306.506 109.667,306.178 109.730,306.110 109.907 C 305.803 110.708,305.375 110.082,305.289 108.707 C 305.233 107.811,305.113 107.215,304.952 107.033 C 304.814 106.877,304.658 106.412,304.606 106.000 C 304.378 104.204,304.279 103.755,304.063 103.539 C 303.937 103.413,303.833 103.052,303.833 102.738 C 303.833 102.341,303.757 102.167,303.583 102.167 C 303.410 102.167,303.333 101.993,303.333 101.601 C 303.333 101.252,303.238 100.999,303.083 100.940 C 302.928 100.880,302.833 100.626,302.833 100.265 C 302.833 99.947,302.758 99.640,302.667 99.583 C 302.575 99.527,302.500 99.340,302.500 99.169 C 302.500 98.997,302.387 98.745,302.250 98.607 C 302.112 98.470,302.000 98.173,302.000 97.949 C 302.000 97.724,301.887 97.447,301.750 97.333 C 301.612 97.219,301.500 96.948,301.500 96.730 C 301.500 96.512,301.432 96.333,301.348 96.333 C 301.264 96.333,301.145 96.033,301.083 95.667 C 301.021 95.300,300.908 95.000,300.832 95.000 C 300.756 95.000,300.644 94.775,300.583 94.500 C 300.519 94.209,300.366 94.000,300.217 94.000 C 300.046 94.000,299.989 93.893,300.045 93.677 C 300.094 93.491,300.032 93.317,299.898 93.266 C 299.771 93.217,299.667 93.025,299.667 92.839 C 299.667 92.652,299.593 92.500,299.503 92.500 C 299.413 92.500,299.294 92.318,299.238 92.095 C 299.182 91.873,299.031 91.650,298.902 91.601 C 298.763 91.547,298.667 91.277,298.667 90.941 C 298.667 90.514,298.584 90.351,298.335 90.286 C 298.153 90.238,297.930 90.004,297.839 89.766 C 297.749 89.528,297.606 89.333,297.522 89.333 C 297.438 89.333,297.322 89.146,297.265 88.917 C 297.207 88.688,297.087 88.500,296.997 88.500 C 296.907 88.500,296.833 88.388,296.833 88.250 C 296.833 88.112,296.758 88.000,296.667 88.000 C 296.575 88.000,296.500 87.898,296.500 87.772 C 296.500 87.647,296.352 87.357,296.172 87.128 C 295.992 86.899,295.892 86.664,295.950 86.606 C 296.008 86.548,295.931 86.500,295.778 86.500 C 295.625 86.500,295.500 86.422,295.500 86.326 C 295.500 86.153,295.340 85.925,294.792 85.321 C 294.631 85.145,294.500 84.925,294.500 84.833 C 294.500 84.742,294.423 84.667,294.329 84.667 C 294.235 84.667,294.087 84.479,294.000 84.250 C 293.913 84.021,293.765 83.833,293.671 83.833 C 293.577 83.833,293.500 83.721,293.500 83.583 C 293.500 83.446,293.425 83.333,293.333 83.333 C 293.242 83.333,293.167 83.266,293.167 83.184 C 293.167 83.102,292.829 82.678,292.417 82.241 C 292.004 81.804,291.667 81.346,291.667 81.223 C 291.667 81.101,291.554 81.000,291.417 81.000 C 291.279 81.000,291.167 80.887,291.167 80.750 C 291.167 80.612,291.094 80.500,291.006 80.500 C 290.788 80.500,289.833 79.555,289.833 79.339 C 289.833 79.244,289.758 79.167,289.667 79.167 C 289.451 79.167,288.833 78.549,288.833 78.333 C 288.833 78.242,288.775 78.167,288.704 78.167 C 288.526 78.167,287.500 77.217,287.499 77.051 C 287.498 76.977,287.244 76.744,286.933 76.532 C 286.622 76.320,286.066 75.870,285.697 75.532 C 285.328 75.194,284.870 74.806,284.680 74.672 C 284.489 74.537,284.333 74.330,284.333 74.213 C 284.333 74.096,284.225 74.000,284.092 74.000 C 283.959 74.000,283.648 73.812,283.401 73.583 C 283.154 73.354,282.850 73.167,282.726 73.167 C 282.602 73.167,282.500 73.054,282.500 72.917 C 282.500 72.778,282.352 72.667,282.167 72.667 C 281.981 72.667,281.833 72.556,281.833 72.417 C 281.833 72.279,281.736 72.167,281.617 72.167 C 281.497 72.167,281.306 72.073,281.192 71.958 C 281.077 71.844,280.919 71.750,280.840 71.750 C 280.713 71.750,280.242 71.395,279.129 70.458 C 278.938 70.298,278.681 70.167,278.558 70.167 C 278.434 70.167,278.333 70.092,278.333 70.000 C 278.333 69.908,278.193 69.833,278.020 69.833 C 277.848 69.833,277.614 69.721,277.500 69.583 C 277.386 69.446,277.160 69.333,276.997 69.333 C 276.835 69.333,276.659 69.221,276.606 69.083 C 276.554 68.946,276.396 68.833,276.255 68.833 C 276.115 68.833,276.000 68.758,276.000 68.667 C 276.000 68.575,275.813 68.500,275.583 68.500 C 275.324 68.500,275.167 68.406,275.167 68.250 C 275.167 68.097,275.011 68.000,274.768 68.000 C 274.548 68.000,274.326 67.887,274.273 67.750 C 274.220 67.613,274.029 67.500,273.848 67.500 C 273.668 67.500,273.473 67.425,273.417 67.333 C 273.360 67.242,273.177 67.167,273.011 67.167 C 272.844 67.167,272.614 67.054,272.500 66.917 C 272.386 66.779,272.114 66.667,271.896 66.667 C 271.669 66.667,271.500 66.568,271.500 66.435 C 271.500 66.303,271.251 66.157,270.917 66.094 C 270.596 66.034,270.333 65.913,270.333 65.826 C 270.333 65.738,270.113 65.667,269.843 65.667 C 269.574 65.667,269.307 65.592,269.250 65.500 C 269.193 65.408,268.898 65.333,268.593 65.333 C 268.179 65.333,268.017 65.249,267.952 65.000 C 267.894 64.780,267.724 64.667,267.453 64.667 C 267.226 64.667,266.947 64.554,266.833 64.417 C 266.714 64.273,266.351 64.167,265.980 64.167 C 265.624 64.167,265.333 64.101,265.333 64.021 C 265.333 63.942,264.961 63.827,264.507 63.767 C 264.052 63.706,263.635 63.584,263.580 63.495 C 263.525 63.406,263.118 63.333,262.675 63.333 C 262.112 63.333,261.840 63.258,261.773 63.083 C 261.707 62.911,261.438 62.833,260.910 62.833 C 260.450 62.833,260.043 62.733,259.893 62.583 C 259.732 62.423,259.320 62.333,258.738 62.333 C 258.240 62.333,257.833 62.258,257.833 62.167 C 257.833 62.070,257.300 62.000,256.566 62.000 C 255.572 62.000,255.316 61.952,255.384 61.776 C 255.453 61.595,254.865 61.531,252.360 61.443 C 245.768 61.213,239.667 61.373,239.667 61.776 C 239.667 61.947,239.312 62.000,238.167 62.000 C 237.278 62.000,236.667 62.068,236.667 62.167 C 236.667 62.259,236.220 62.333,235.661 62.333 C 234.922 62.333,234.631 62.399,234.560 62.583 C 234.493 62.759,234.219 62.833,233.644 62.833 C 233.068 62.833,232.794 62.908,232.727 63.083 C 232.660 63.258,232.388 63.333,231.825 63.333 C 231.382 63.333,230.975 63.406,230.920 63.495 C 230.865 63.584,230.448 63.706,229.993 63.767 C 229.539 63.827,229.167 63.942,229.167 64.021 C 229.167 64.101,228.939 64.167,228.661 64.167 C 228.366 64.167,228.116 64.271,228.060 64.417 C 228.006 64.559,227.757 64.667,227.484 64.667 C 227.183 64.667,226.925 64.792,226.795 65.000 C 226.657 65.221,226.406 65.333,226.053 65.333 C 225.760 65.333,225.473 65.408,225.417 65.500 C 225.360 65.592,225.131 65.667,224.907 65.667 C 224.683 65.667,224.500 65.738,224.500 65.826 C 224.500 65.913,224.237 66.034,223.917 66.094 C 223.583 66.157,223.333 66.303,223.333 66.435 C 223.333 66.589,223.137 66.667,222.750 66.667 C 222.429 66.667,222.167 66.727,222.167 66.801 C 222.167 66.971,220.984 67.500,220.605 67.500 C 220.450 67.500,220.280 67.612,220.227 67.750 C 220.174 67.887,219.952 68.000,219.732 68.000 C 219.489 68.000,219.333 68.097,219.333 68.250 C 219.333 68.407,219.175 68.500,218.907 68.500 C 218.665 68.500,218.525 68.572,218.583 68.667 C 218.640 68.758,218.530 68.833,218.338 68.833 C 218.146 68.833,217.946 68.946,217.894 69.083 C 217.841 69.221,217.665 69.333,217.503 69.333 C 217.340 69.333,217.114 69.446,217.000 69.583 C 216.886 69.721,216.652 69.833,216.480 69.833 C 216.307 69.833,216.167 69.900,216.167 69.982 C 216.167 70.064,215.976 70.178,215.743 70.237 C 215.510 70.295,215.361 70.411,215.412 70.493 C 215.463 70.575,215.354 70.691,215.169 70.749 C 214.984 70.808,214.833 70.963,214.833 71.095 C 214.833 71.226,214.688 71.333,214.510 71.333 C 214.332 71.333,214.140 71.408,214.083 71.500 C 214.027 71.592,213.835 71.667,213.657 71.667 C 213.479 71.667,213.333 71.779,213.333 71.917 C 213.333 72.054,213.221 72.167,213.083 72.167 C 212.946 72.167,212.833 72.244,212.833 72.337 C 212.833 72.431,212.646 72.580,212.417 72.667 C 212.188 72.754,212.000 72.902,212.000 72.996 C 212.000 73.090,211.922 73.167,211.826 73.167 C 211.730 73.167,211.450 73.354,211.203 73.583 C 210.956 73.812,210.659 74.000,210.543 74.000 C 210.428 74.000,210.333 74.112,210.333 74.250 C 210.333 74.387,210.238 74.500,210.122 74.500 C 210.005 74.500,209.461 74.912,208.913 75.415 C 207.685 76.544,207.637 76.544,206.466 75.416 C 205.942 74.912,205.434 74.500,205.335 74.500 C 205.237 74.500,205.113 74.387,205.060 74.250 C 205.008 74.112,204.868 74.000,204.750 74.000 C 204.632 74.000,204.492 73.887,204.440 73.750 C 204.387 73.612,204.229 73.500,204.089 73.500 C 203.948 73.500,203.833 73.425,203.833 73.333 C 203.833 73.242,203.729 73.167,203.601 73.167 C 203.473 73.167,203.326 73.054,203.273 72.917 C 203.220 72.779,203.062 72.667,202.922 72.667 C 202.782 72.667,202.667 72.554,202.667 72.417 C 202.667 72.279,202.552 72.167,202.411 72.167 C 202.271 72.167,202.113 72.054,202.060 71.917 C 202.008 71.779,201.859 71.667,201.730 71.667 C 201.417 71.667,200.913 71.357,200.242 70.750 C 199.314 69.912,199.193 69.833,198.840 69.833 C 198.653 69.833,198.500 69.760,198.500 69.670 C 198.500 69.580,198.318 69.461,198.095 69.405 C 197.873 69.349,197.650 69.198,197.601 69.068 C 197.551 68.939,197.358 68.833,197.172 68.833 C 196.986 68.833,196.833 68.758,196.833 68.667 C 196.833 68.575,196.646 68.500,196.417 68.500 C 196.157 68.500,196.000 68.406,196.000 68.250 C 196.000 68.094,195.843 68.000,195.583 68.000 C 195.354 68.000,195.167 67.929,195.167 67.841 C 195.167 67.754,194.885 67.562,194.542 67.414 C 194.198 67.267,193.704 67.038,193.445 66.906 C 193.185 66.775,192.829 66.667,192.653 66.667 C 192.477 66.667,192.333 66.554,192.333 66.417 C 192.333 66.244,192.160 66.167,191.770 66.167 C 191.461 66.167,191.114 66.054,191.000 65.917 C 190.886 65.779,190.656 65.667,190.489 65.667 C 190.323 65.667,190.140 65.592,190.083 65.500 C 190.027 65.408,189.759 65.333,189.489 65.333 C 189.203 65.333,188.877 65.194,188.711 65.000 C 188.554 64.817,188.250 64.667,188.034 64.667 C 187.819 64.667,187.530 64.554,187.393 64.417 C 187.255 64.279,186.923 64.167,186.655 64.167 C 186.386 64.167,186.167 64.108,186.167 64.036 C 186.167 63.894,184.700 63.538,183.500 63.389 C 183.088 63.338,182.690 63.192,182.617 63.065 C 182.538 62.928,182.210 62.833,181.813 62.833 C 181.440 62.833,181.032 62.723,180.893 62.583 C 180.732 62.423,180.320 62.333,179.738 62.333 C 179.240 62.333,178.833 62.258,178.833 62.167 C 178.833 62.068,178.244 62.000,177.399 62.000 C 176.272 62.000,175.983 61.952,176.050 61.778 C 176.097 61.656,176.048 61.547,175.942 61.536 C 175.273 61.468,163.563 61.391,161.966 61.445 M202.862 72.111 C 202.933 72.478,203.583 72.528,203.583 72.167 C 203.583 72.029,203.408 71.892,203.194 71.861 C 202.891 71.819,202.817 71.875,202.862 72.111 M219.792 150.625 L 219.750 174.417 214.792 174.461 L 209.833 174.505 209.833 151.169 C 209.833 138.334,209.874 127.833,209.924 127.833 C 210.161 127.833,216.714 127.143,217.667 127.018 C 218.262 126.940,218.994 126.866,219.292 126.854 L 219.834 126.833 219.792 150.625 M325.900 127.083 C 327.101 127.221,329.204 127.445,330.573 127.581 C 331.942 127.717,333.123 127.890,333.198 127.965 C 333.273 128.040,333.315 138.522,333.292 151.259 L 333.250 174.417 328.833 174.417 L 324.417 174.417 324.189 172.750 C 324.064 171.833,323.941 171.061,323.917 171.033 C 323.892 171.006,323.435 171.442,322.900 172.003 C 320.141 174.896,316.512 176.011,312.299 175.259 C 307.094 174.331,303.329 169.086,302.723 161.917 L 302.618 160.667 292.078 160.667 L 281.539 160.667 281.766 161.860 C 282.935 167.993,288.989 169.981,296.000 166.533 C 297.054 166.015,297.963 165.589,298.019 165.587 C 298.075 165.585,299.008 166.775,300.093 168.231 L 302.066 170.879 301.574 171.278 C 294.161 177.299,281.646 176.851,275.633 170.349 C 270.209 164.483,269.930 152.530,275.062 145.861 C 282.761 135.855,300.572 139.346,302.571 151.253 C 302.774 152.463,302.939 152.437,303.256 151.144 C 305.674 141.273,315.507 136.731,322.445 142.278 C 322.827 142.583,323.183 142.833,323.236 142.833 C 323.290 142.833,323.333 139.233,323.333 134.833 C 323.333 128.912,323.383 126.833,323.525 126.833 C 323.631 126.833,324.699 126.946,325.900 127.083 M93.583 152.667 L 93.583 174.417 88.458 174.461 L 83.333 174.505 83.333 152.667 L 83.333 130.829 88.458 130.873 L 93.583 130.917 93.583 152.667 M116.500 130.991 C 116.500 131.077,116.069 131.822,115.542 132.645 C 115.015 133.469,114.133 134.863,113.583 135.742 C 113.033 136.622,112.237 137.883,111.814 138.546 C 110.831 140.086,104.591 150.016,104.433 150.291 C 104.364 150.413,105.205 152.068,106.466 154.291 C 107.649 156.377,108.864 158.533,109.166 159.083 C 109.468 159.633,110.818 162.033,112.166 164.417 C 113.515 166.800,114.906 169.275,115.257 169.917 C 115.609 170.558,116.295 171.787,116.782 172.646 C 117.268 173.506,117.667 174.276,117.667 174.357 C 117.667 174.440,115.095 174.485,111.737 174.460 L 105.807 174.417 104.729 172.333 C 104.136 171.188,102.744 168.487,101.636 166.333 C 100.528 164.179,99.079 161.367,98.417 160.083 C 97.754 158.800,96.454 156.281,95.528 154.486 L 93.845 151.222 95.150 148.986 C 96.502 146.668,98.547 143.183,101.500 138.167 C 102.444 136.563,103.301 135.100,103.404 134.917 C 103.929 133.981,105.572 131.223,105.712 131.042 C 105.912 130.784,116.500 130.734,116.500 130.991 M257.628 136.877 L 257.672 141.000 262.910 141.000 C 265.790 141.000,268.182 141.057,268.225 141.126 C 268.268 141.196,268.086 142.752,267.819 144.585 C 267.553 146.417,267.335 147.935,267.335 147.958 C 267.334 147.981,265.155 148.000,262.493 148.000 L 257.652 148.000 257.701 156.542 L 257.750 165.083 258.225 165.892 C 259.422 167.928,263.964 168.213,267.395 166.468 C 268.182 166.067,268.048 165.922,269.512 168.750 C 270.176 170.033,270.858 171.345,271.027 171.664 C 271.461 172.487,271.441 172.531,270.375 173.115 C 263.917 176.657,254.939 176.222,250.870 172.169 C 247.982 169.292,247.672 167.779,247.669 156.542 L 247.667 148.000 244.171 148.000 L 240.675 148.000 240.629 145.160 L 240.583 142.321 238.760 144.785 C 237.757 146.141,236.188 148.262,235.273 149.500 C 234.358 150.737,232.947 152.634,232.138 153.714 C 231.329 154.794,230.667 155.757,230.667 155.854 C 230.667 155.951,231.991 158.105,233.610 160.640 C 235.229 163.176,237.854 167.287,239.443 169.776 C 241.033 172.266,242.333 174.347,242.333 174.401 C 242.333 174.456,239.802 174.500,236.708 174.500 L 231.083 174.500 225.667 165.461 C 222.688 160.490,220.227 156.335,220.199 156.229 C 220.172 156.122,220.702 155.296,221.378 154.392 C 222.053 153.489,223.051 152.124,223.595 151.360 C 224.829 149.625,225.318 148.948,227.489 145.969 C 228.446 144.657,229.556 143.133,229.957 142.583 C 230.358 142.033,230.793 141.452,230.924 141.292 C 231.146 141.021,231.759 141.000,239.415 141.000 L 247.667 141.000 247.667 137.435 L 247.667 133.871 249.292 133.674 C 250.185 133.565,252.304 133.301,254.000 133.086 C 255.696 132.872,257.196 132.709,257.333 132.725 C 257.547 132.750,257.590 133.359,257.628 136.877 M134.611 140.553 C 142.117 142.545,145.916 148.327,145.912 157.750 C 145.908 169.079,140.073 175.519,129.833 175.496 C 119.924 175.474,114.139 169.432,113.719 158.667 C 113.352 149.249,117.745 142.389,125.333 140.528 C 128.051 139.861,132.049 139.872,134.611 140.553 M170.000 140.505 C 172.765 141.470,174.497 143.369,175.357 146.378 L 175.750 147.750 175.750 161.083 L 175.750 174.417 170.792 174.461 L 165.833 174.505 165.833 163.076 C 165.833 150.959,165.771 149.770,165.073 148.562 C 163.807 146.368,160.204 147.208,157.542 150.318 L 156.833 151.145 156.833 162.825 L 156.833 174.505 151.875 174.461 L 146.917 174.417 146.917 157.750 L 146.917 141.083 151.155 141.039 C 156.038 140.987,155.571 140.811,155.911 142.833 C 156.058 143.704,156.210 144.510,156.250 144.623 C 156.293 144.747,156.639 144.513,157.119 144.034 C 160.671 140.489,165.874 139.064,170.000 140.505 M197.807 140.576 C 204.955 142.529,208.583 148.087,208.583 157.083 L 208.583 160.583 197.808 160.626 L 187.032 160.669 187.120 161.376 C 187.942 167.969,194.745 170.170,202.150 166.237 C 202.919 165.828,203.564 165.514,203.581 165.539 C 203.598 165.563,204.361 166.596,205.275 167.833 C 206.190 169.071,207.069 170.283,207.228 170.527 L 207.519 170.970 206.468 171.717 C 199.728 176.511,189.589 176.814,183.397 172.407 C 174.305 165.936,174.703 148.836,184.092 142.527 C 187.644 140.140,193.277 139.339,197.807 140.576 M191.300 146.988 C 188.971 147.733,187.589 149.778,187.095 153.208 L 186.886 154.667 192.943 154.667 L 199.000 154.667 198.997 154.042 C 198.969 148.707,195.594 145.615,191.300 146.988 M285.881 146.969 C 283.520 147.734,282.164 149.696,281.624 153.125 L 281.382 154.667 287.465 154.667 L 293.549 154.667 293.450 153.208 C 293.118 148.333,289.887 145.670,285.881 146.969 M128.041 147.650 C 125.071 148.753,123.881 151.970,124.041 158.456 C 124.215 165.456,125.799 168.088,129.833 168.078 C 133.777 168.067,135.305 165.748,135.757 159.083 C 136.321 150.752,132.988 145.813,128.041 147.650 M316.685 147.649 C 313.522 148.932,311.922 155.655,313.131 162.583 C 314.210 168.769,318.952 170.129,322.586 165.295 L 323.333 164.300 323.333 157.168 L 323.333 150.036 322.461 149.159 C 320.785 147.475,318.553 146.891,316.685 147.649 M239.740 205.500 C 239.740 208.112,239.763 209.181,239.791 207.875 C 239.819 206.569,239.819 204.431,239.791 203.125 C 239.763 201.819,239.740 202.887,239.740 205.500 M64.993 229.165 C 66.455 229.491,67.001 229.681,68.500 230.386 C 69.177 230.704,70.200 231.307,70.815 231.750 C 71.243 232.059,73.915 234.747,74.127 235.083 C 74.743 236.057,74.997 236.436,75.157 236.618 C 75.254 236.729,75.333 236.920,75.333 237.043 C 75.333 237.166,75.411 237.345,75.507 237.440 C 77.336 239.270,77.336 248.730,75.507 250.560 C 75.411 250.655,75.333 250.834,75.333 250.957 C 75.333 251.080,75.254 251.271,75.157 251.382 C 74.997 251.564,74.743 251.943,74.127 252.917 C 73.915 253.253,71.243 255.941,70.815 256.250 C 69.843 256.950,68.686 257.571,67.116 258.235 C 63.218 259.883,57.786 259.296,53.751 256.790 C 52.346 255.918,50.340 254.015,49.566 252.822 C 49.302 252.416,49.042 252.046,48.988 252.000 C 48.935 251.954,48.701 251.542,48.469 251.083 C 46.059 246.311,46.059 241.689,48.469 236.917 C 48.701 236.458,48.935 236.046,48.988 236.000 C 49.042 235.954,49.302 235.584,49.566 235.178 C 52.574 230.541,59.336 227.905,64.993 229.165 M239.740 242.667 C 239.740 245.279,239.763 246.348,239.791 245.042 C 239.819 243.735,239.819 241.598,239.791 240.292 C 239.763 238.985,239.740 240.054,239.740 242.667 M239.740 261.167 C 239.740 263.779,239.763 264.848,239.791 263.542 C 239.819 262.235,239.819 260.098,239.791 258.792 C 239.763 257.485,239.740 258.554,239.740 261.167 M341.838 259.726 C 342.711 259.942,343.663 260.242,343.954 260.393 C 344.245 260.544,344.563 260.667,344.661 260.667 C 344.924 260.667,346.891 261.820,347.645 262.417 C 353.460 267.017,355.279 274.446,352.216 281.083 C 351.833 281.913,350.998 283.231,350.808 283.306 C 350.730 283.336,350.667 283.442,350.667 283.542 C 350.667 283.739,350.609 283.804,349.207 285.207 C 347.804 286.609,347.739 286.667,347.542 286.667 C 347.442 286.667,347.336 286.730,347.306 286.808 C 347.231 286.998,345.913 287.833,345.083 288.216 C 338.446 291.279,331.017 289.460,326.417 283.645 C 325.820 282.891,324.667 280.924,324.667 280.661 C 324.667 280.563,324.544 280.245,324.393 279.954 C 323.332 277.902,323.047 274.077,323.745 271.250 C 324.313 268.950,324.694 268.053,325.899 266.180 C 326.515 265.223,328.253 263.326,329.199 262.578 C 329.599 262.262,331.016 261.333,331.098 261.333 C 331.142 261.333,331.379 261.202,331.623 261.042 C 333.887 259.558,338.671 258.942,341.838 259.726 " stroke="none" fill="#4c44e4" fill-rule="evenodd"></path><path id="path2" d="M219.458 126.955 C 219.622 127.071,219.675 132.081,219.709 150.676 L 219.752 174.250 219.751 150.597 C 219.750 129.714,219.721 126.936,219.500 126.876 C 219.316 126.826,219.304 126.847,219.458 126.955 M129.461 140.121 C 129.761 140.158,130.211 140.157,130.461 140.119 C 130.712 140.081,130.467 140.051,129.917 140.052 C 129.367 140.053,129.162 140.084,129.461 140.121 M166.211 140.120 C 166.464 140.158,166.839 140.157,167.044 140.117 C 167.249 140.078,167.042 140.046,166.583 140.048 C 166.125 140.049,165.957 140.081,166.211 140.120 M192.628 140.121 C 192.928 140.158,193.378 140.157,193.628 140.119 C 193.878 140.081,193.633 140.051,193.083 140.052 C 192.533 140.053,192.328 140.084,192.628 140.121 M287.208 140.119 C 287.460 140.158,287.873 140.158,288.125 140.119 C 288.377 140.081,288.171 140.050,287.667 140.050 C 287.162 140.050,286.956 140.081,287.208 140.119 M315.377 140.120 C 315.631 140.158,316.006 140.157,316.211 140.117 C 316.416 140.078,316.208 140.046,315.750 140.048 C 315.292 140.049,315.124 140.081,315.377 140.120 M240.318 142.451 C 240.104 142.724,240.109 142.730,240.375 142.521 C 240.650 142.306,240.669 142.453,240.704 145.105 L 240.741 147.917 240.792 145.179 C 240.842 142.424,240.751 141.900,240.318 142.451 M157.225 144.003 C 156.661 144.551,156.251 145.000,156.313 145.000 C 156.376 145.000,156.872 144.550,157.417 144.000 C 158.697 142.706,158.557 142.708,157.225 144.003 M141.167 144.417 C 141.665 144.921,142.109 145.333,142.155 145.333 C 142.201 145.333,141.831 144.921,141.333 144.417 C 140.835 143.912,140.391 143.500,140.345 143.500 C 140.299 143.500,140.669 143.912,141.167 144.417 M203.993 144.208 C 204.402 144.644,204.758 145.000,204.785 145.000 C 204.910 145.000,204.778 144.850,204.042 144.160 L 203.250 143.417 203.993 144.208 M129.627 147.285 C 129.834 147.324,130.134 147.323,130.294 147.281 C 130.453 147.239,130.283 147.207,129.917 147.209 C 129.550 147.211,129.420 147.245,129.627 147.285 M162.375 147.282 C 162.535 147.323,162.798 147.323,162.958 147.282 C 163.119 147.240,162.987 147.205,162.667 147.205 C 162.346 147.205,162.215 147.240,162.375 147.282 M283.573 148.208 L 283.083 148.750 283.625 148.260 C 284.130 147.804,284.243 147.667,284.115 147.667 C 284.086 147.667,283.842 147.910,283.573 148.208 M158.073 149.542 L 157.583 150.083 158.125 149.594 C 158.423 149.325,158.667 149.081,158.667 149.052 C 158.667 148.923,158.529 149.037,158.073 149.542 M175.746 162.083 C 175.746 168.775,175.766 171.488,175.792 168.113 C 175.817 164.737,175.817 159.262,175.792 155.946 C 175.766 152.630,175.746 155.392,175.746 162.083 M293.542 153.417 C 293.544 153.783,293.578 153.914,293.618 153.706 C 293.658 153.499,293.656 153.199,293.615 153.040 C 293.573 152.880,293.540 153.050,293.542 153.417 M199.039 153.833 C 199.039 154.154,199.073 154.285,199.115 154.125 C 199.157 153.965,199.157 153.702,199.115 153.542 C 199.073 153.381,199.039 153.512,199.039 153.833 M189.875 154.791 C 191.594 154.819,194.406 154.819,196.125 154.791 C 197.844 154.764,196.438 154.742,193.000 154.742 C 189.563 154.742,188.156 154.764,189.875 154.791 M284.375 154.791 C 286.094 154.819,288.906 154.819,290.625 154.791 C 292.344 154.764,290.938 154.742,287.500 154.742 C 284.063 154.742,282.656 154.764,284.375 154.791 M271.539 155.500 C 271.539 155.821,271.573 155.952,271.615 155.792 C 271.657 155.631,271.657 155.369,271.615 155.208 C 271.573 155.048,271.539 155.179,271.539 155.500 M113.721 157.750 C 113.722 158.392,113.752 158.634,113.788 158.288 C 113.824 157.942,113.824 157.417,113.787 157.121 C 113.750 156.825,113.721 157.108,113.721 157.750 M176.889 157.833 C 176.889 158.521,176.919 158.802,176.955 158.458 C 176.991 158.115,176.991 157.552,176.955 157.208 C 176.919 156.865,176.889 157.146,176.889 157.833 M271.539 160.167 C 271.539 160.487,271.573 160.619,271.615 160.458 C 271.657 160.298,271.657 160.035,271.615 159.875 C 271.573 159.715,271.539 159.846,271.539 160.167 M186.942 160.625 C 186.872 160.738,194.828 160.737,204.750 160.621 C 206.858 160.597,203.732 160.560,197.802 160.538 C 191.871 160.517,186.985 160.556,186.942 160.625 M286.804 160.625 C 289.767 160.650,294.567 160.650,297.470 160.625 C 300.374 160.599,297.950 160.578,292.083 160.579 C 286.217 160.579,283.841 160.599,286.804 160.625 M247.705 164.167 C 247.705 164.487,247.740 164.619,247.782 164.458 C 247.823 164.298,247.823 164.035,247.782 163.875 C 247.740 163.715,247.705 163.846,247.705 164.167 M126.083 166.833 C 126.441 167.200,126.772 167.500,126.818 167.500 C 126.863 167.500,126.608 167.200,126.250 166.833 C 125.892 166.467,125.562 166.167,125.516 166.167 C 125.470 166.167,125.725 166.467,126.083 166.833 M129.544 168.286 C 129.797 168.325,130.172 168.324,130.377 168.284 C 130.582 168.244,130.375 168.213,129.917 168.214 C 129.458 168.216,129.291 168.248,129.544 168.286 M193.708 168.282 C 193.869 168.323,194.131 168.323,194.292 168.282 C 194.452 168.240,194.321 168.205,194.000 168.205 C 193.679 168.205,193.548 168.240,193.708 168.282 M195.794 168.285 C 196.001 168.324,196.301 168.323,196.460 168.281 C 196.620 168.239,196.450 168.207,196.083 168.209 C 195.717 168.211,195.586 168.245,195.794 168.285 M288.208 168.282 C 288.369 168.323,288.631 168.323,288.792 168.282 C 288.952 168.240,288.821 168.205,288.500 168.205 C 288.179 168.205,288.048 168.240,288.208 168.282 M290.294 168.285 C 290.501 168.324,290.801 168.323,290.960 168.281 C 291.120 168.239,290.950 168.207,290.583 168.209 C 290.217 168.211,290.086 168.245,290.294 168.285 M317.542 168.282 C 317.702 168.323,317.965 168.323,318.125 168.282 C 318.285 168.240,318.154 168.205,317.833 168.205 C 317.512 168.205,317.381 168.240,317.542 168.282 M181.667 170.917 C 181.978 171.237,182.270 171.500,182.315 171.500 C 182.361 171.500,182.144 171.237,181.833 170.917 C 181.522 170.596,181.230 170.333,181.185 170.333 C 181.139 170.333,181.356 170.596,181.667 170.917 M306.993 172.375 C 307.684 173.111,307.833 173.243,307.833 173.118 C 307.833 173.091,307.477 172.735,307.042 172.326 L 306.250 171.583 306.993 172.375 M322.573 172.208 L 322.083 172.750 322.625 172.260 C 323.130 171.804,323.243 171.667,323.115 171.667 C 323.086 171.667,322.842 171.910,322.573 172.208 M129.375 175.453 C 129.627 175.491,130.040 175.491,130.292 175.453 C 130.544 175.415,130.337 175.383,129.833 175.383 C 129.329 175.383,129.123 175.415,129.375 175.453 M193.708 175.453 C 193.960 175.491,194.373 175.491,194.625 175.453 C 194.877 175.415,194.671 175.383,194.167 175.383 C 193.662 175.383,193.456 175.415,193.708 175.453 M260.042 175.453 C 260.294 175.491,260.706 175.491,260.958 175.453 C 261.210 175.415,261.004 175.383,260.500 175.383 C 259.996 175.383,259.790 175.415,260.042 175.453 M288.208 175.453 C 288.460 175.491,288.873 175.491,289.125 175.453 C 289.377 175.415,289.171 175.383,288.667 175.383 C 288.162 175.383,287.956 175.415,288.208 175.453 M314.292 175.451 C 314.498 175.491,314.835 175.491,315.042 175.451 C 315.248 175.411,315.079 175.379,314.667 175.379 C 314.254 175.379,314.085 175.411,314.292 175.451 " stroke="none" fill="#a49cec" fill-rule="evenodd"></path><path id="path3" d="M146.913 157.833 C 146.913 166.954,146.934 170.685,146.958 166.125 C 146.983 161.565,146.983 154.102,146.958 149.542 C 146.934 144.981,146.913 148.712,146.913 157.833 M276.242 144.542 L 275.583 145.250 276.292 144.591 C 276.950 143.978,277.077 143.833,276.950 143.833 C 276.923 143.833,276.605 144.152,276.242 144.542 M242.384 147.958 C 243.374 147.987,244.949 147.987,245.884 147.958 C 246.819 147.928,246.008 147.904,244.083 147.904 C 242.158 147.904,241.394 147.928,242.384 147.958 M260.052 147.958 C 261.410 147.986,263.585 147.986,264.885 147.958 C 266.186 147.930,265.075 147.907,262.417 147.907 C 259.758 147.907,258.694 147.930,260.052 147.958 M194.708 168.282 C 194.869 168.323,195.131 168.323,195.292 168.282 C 195.452 168.240,195.321 168.205,195.000 168.205 C 194.679 168.205,194.548 168.240,194.708 168.282 M289.208 168.282 C 289.369 168.323,289.631 168.323,289.792 168.282 C 289.952 168.240,289.821 168.205,289.500 168.205 C 289.179 168.205,289.048 168.240,289.208 168.282 " stroke="none" fill="#8b84e8" fill-rule="evenodd"></path><path id="path4" d="M333.208 151.130 L 333.167 174.344 328.766 174.297 C 326.345 174.271,324.400 174.306,324.442 174.375 C 324.586 174.606,333.167 174.525,333.256 174.292 C 333.300 174.177,333.316 163.696,333.292 151.000 L 333.249 127.917 333.208 151.130 M88.375 130.957 L 93.500 131.005 93.500 152.667 L 93.500 174.329 88.375 174.376 L 83.250 174.424 88.417 174.420 L 93.583 174.417 93.583 152.667 L 93.583 130.917 88.417 130.913 L 83.250 130.909 88.375 130.957 M108.458 130.958 C 109.948 130.986,112.385 130.986,113.875 130.958 C 115.365 130.930,114.146 130.908,111.167 130.908 C 108.188 130.908,106.969 130.930,108.458 130.958 M257.205 132.771 C 257.468 132.849,257.498 133.235,257.539 136.970 L 257.583 141.083 262.875 141.087 L 268.167 141.090 262.920 141.043 L 257.672 140.995 257.628 136.875 C 257.585 132.893,257.572 132.753,257.250 132.720 C 256.996 132.694,256.986 132.706,257.205 132.771 M146.942 141.125 C 146.899 141.194,148.151 141.231,149.724 141.207 C 155.065 141.127,155.595 141.069,151.302 141.035 C 148.946 141.016,146.985 141.056,146.942 141.125 M235.303 141.125 C 237.624 141.151,241.374 141.151,243.637 141.125 C 245.899 141.099,244.000 141.077,239.417 141.077 C 234.833 141.077,232.982 141.099,235.303 141.125 M307.324 143.458 L 306.750 144.083 307.375 143.509 C 307.957 142.974,308.077 142.833,307.949 142.833 C 307.922 142.833,307.640 143.115,307.324 143.458 M157.073 144.042 L 156.583 144.583 157.125 144.094 C 157.423 143.825,157.667 143.581,157.667 143.552 C 157.667 143.423,157.529 143.537,157.073 144.042 M298.500 144.083 C 298.811 144.404,299.103 144.667,299.149 144.667 C 299.195 144.667,298.978 144.404,298.667 144.083 C 298.356 143.762,298.064 143.500,298.018 143.500 C 297.972 143.500,298.189 143.762,298.500 144.083 M118.333 144.417 C 117.928 144.829,117.635 145.167,117.681 145.167 C 117.726 145.167,118.095 144.829,118.500 144.417 C 118.905 144.004,119.199 143.667,119.153 143.667 C 119.107 143.667,118.738 144.004,118.333 144.417 M141.167 144.250 C 141.478 144.571,141.770 144.833,141.815 144.833 C 141.861 144.833,141.644 144.571,141.333 144.250 C 141.022 143.929,140.730 143.667,140.685 143.667 C 140.639 143.667,140.856 143.929,141.167 144.250 M257.577 155.833 C 257.577 160.188,257.599 161.969,257.625 159.792 C 257.651 157.615,257.651 154.052,257.625 151.875 C 257.599 149.698,257.577 151.479,257.577 155.833 M271.390 157.750 C 271.391 158.483,271.420 158.763,271.456 158.371 C 271.491 157.979,271.490 157.379,271.454 157.037 C 271.419 156.696,271.390 157.017,271.390 157.750 M312.723 157.833 C 312.723 158.521,312.752 158.802,312.788 158.458 C 312.824 158.115,312.824 157.552,312.788 157.208 C 312.752 156.865,312.723 157.146,312.723 157.833 M123.885 157.750 C 123.886 158.300,123.917 158.505,123.954 158.205 C 123.991 157.906,123.990 157.456,123.952 157.205 C 123.914 156.955,123.884 157.200,123.885 157.750 M141.244 171.208 L 140.417 172.083 141.292 171.256 C 142.105 170.488,142.243 170.333,142.119 170.333 C 142.092 170.333,141.699 170.727,141.244 171.208 M105.810 174.377 C 105.880 174.447,108.595 174.485,111.844 174.460 L 117.750 174.416 111.717 174.333 C 108.398 174.287,105.740 174.307,105.810 174.377 M236.583 174.333 L 230.917 174.423 236.625 174.462 C 240.345 174.487,242.333 174.442,242.333 174.333 C 242.333 174.242,242.315 174.184,242.292 174.205 C 242.269 174.226,239.700 174.284,236.583 174.333 M149.469 174.458 C 150.872 174.486,153.122 174.486,154.469 174.458 C 155.815 174.430,154.667 174.407,151.917 174.407 C 149.167 174.407,148.065 174.430,149.469 174.458 M168.302 174.458 C 169.706 174.486,171.956 174.486,173.302 174.458 C 174.648 174.430,173.500 174.407,170.750 174.407 C 168.000 174.407,166.898 174.430,168.302 174.458 M212.302 174.458 C 213.706 174.486,215.956 174.486,217.302 174.458 C 218.648 174.430,217.500 174.407,214.750 174.407 C 212.000 174.407,210.898 174.430,212.302 174.458 " stroke="none" fill="#746be4" fill-rule="evenodd"></path></g></svg>